<?xml version="1.0" encoding="UTF-8" standalone="no"?>
<!-- Created with Inkscape (http://www.inkscape.org/) -->

<svg
   xmlns:dc="http://purl.org/dc/elements/1.1/"
   xmlns:cc="http://creativecommons.org/ns#"
   xmlns:rdf="http://www.w3.org/1999/02/22-rdf-syntax-ns#"
   xmlns:svg="http://www.w3.org/2000/svg"
   xmlns="http://www.w3.org/2000/svg"
   xmlns:sodipodi="http://sodipodi.sourceforge.net/DTD/sodipodi-0.dtd"
   xmlns:inkscape="http://www.inkscape.org/namespaces/inkscape"
   width="210mm"
   height="297mm"
   id="svg2"
   version="1.1"
   inkscape:version="0.48.0 r9654"
   sodipodi:docname="bon_template.svg">
  <defs
     id="defs4">
    <path
       inkscape:connector-curvature="0"
       id="path2985-1-5-4-8-2"
       d="m 308.4683,841.68748 c -37.47772,-0.1361 -73.15956,26.02499 -84.39325,61.98557 -11.37081,33.47227 -0.39672,73.1867 26.67514,95.92966 27.82896,24.85539 71.59549,29.02459 103.65458,9.98939 31.21619,-17.37749 49.69043,-54.89141 44.28818,-90.40339 -4.66427,-37.35879 -35.22566,-69.3873 -72.10592,-75.91609 -5.9728,-1.16736 -12.01414,-1.66842 -18.11873,-1.58514 z"
       style="fill:#1a1a1a;stroke:none" />
    <path
       inkscape:connector-curvature="0"
       id="path2985-1-5-4-8-7"
       d="m 330.13624,820.07201 c -35.39562,-0.12854 -69.09514,24.57915 -79.70473,58.54193 -10.73911,31.61269 -0.37468,69.12076 25.19318,90.60028 26.28291,23.47462 67.61797,27.41216 97.896,9.43438 29.48195,-16.41207 46.92985,-51.8419 41.82772,-85.38098 -4.40513,-35.28331 -33.26868,-65.53246 -68.10004,-71.69853 -5.64096,-1.10252 -11.34668,-1.57574 -17.11213,-1.49708 z"
       style="fill:#1a1a1a;stroke:none" />
  </defs>
  <sodipodi:namedview
     id="base"
     pagecolor="#ffffff"
     bordercolor="#666666"
     borderopacity="1.0"
     inkscape:pageopacity="0.0"
     inkscape:pageshadow="2"
     inkscape:zoom="7.9195959"
     inkscape:cx="176.05662"
     inkscape:cy="827.43301"
     inkscape:document-units="px"
     inkscape:current-layer="layer1"
     showgrid="false"
     inkscape:window-width="1680"
     inkscape:window-height="994"
     inkscape:window-x="-4"
     inkscape:window-y="-4"
     inkscape:window-maximized="1"
     showguides="true"
     inkscape:guide-bbox="true">
    <sodipodi:guide
       orientation="0,1"
       position="176.52416,855.97801"
       id="guide3941" />
  </sodipodi:namedview>
  <metadata
     id="metadata7">
    <rdf:RDF>
      <cc:Work
         rdf:about="">
        <dc:format>image/svg+xml</dc:format>
        <dc:type
           rdf:resource="http://purl.org/dc/dcmitype/StillImage" />
        <dc:title></dc:title>
      </cc:Work>
    </rdf:RDF>
  </metadata>
  <g
     inkscape:label="Ebene 1"
     inkscape:groupmode="layer"
     id="layer1">
    <rect
       style="fill:none;stroke:#000000;stroke-opacity:1"
       id="rect2985"
       width="80"
       height="155.19223"
       x="111.62186"
       y="196.38417" />
    <g
       transform="matrix(0.11854021,0,0,0.10468092,114.01411,109.9565)"
       id="layer1-9"
       inkscape:label="Layer 1">
      <flowRoot
         style="font-size:40px;font-style:normal;font-variant:normal;font-weight:bold;font-stretch:normal;line-height:125%;letter-spacing:0px;word-spacing:0px;fill:#000000;fill-opacity:1;stroke:none;font-family:Droid Sans;-inkscape-font-specification:Droid Sans Bold"
         id="flowRoot3942"
         xml:space="preserve"><flowRegion
           id="flowRegion3944"><rect
             y="1010.4409"
             x="-98.994949"
             height="41.921329"
             width="119.198"
             id="rect3946" /></flowRegion><flowPara
           id="flowPara3948" /></flowRoot>      <flowRoot
         style="font-size:40px;font-style:normal;font-variant:normal;font-weight:bold;font-stretch:normal;line-height:125%;letter-spacing:0px;word-spacing:0px;fill:#000000;fill-opacity:1;stroke:none;font-family:Droid Sans;-inkscape-font-specification:Droid Sans Bold"
         id="flowRoot3950"
         xml:space="preserve"><flowRegion
           id="flowRegion3952"><rect
             y="1007.4104"
             x="-110.6117"
             height="40.911179"
             width="101.52033"
             id="rect3954" /></flowRegion><flowPara
           id="flowPara3956">PROX</flowPara></flowRoot>      <flowRoot
         style="font-size:25px;font-style:normal;font-variant:normal;font-weight:bold;font-stretch:normal;line-height:125%;letter-spacing:0px;word-spacing:0px;fill:#000000;fill-opacity:1;stroke:none;font-family:Droid Sans;-inkscape-font-specification:Droid Sans Bold"
         id="flowRoot4076"
         xml:space="preserve"><flowRegion
           id="flowRegion4078"><rect
             style="font-size:25px"
             y="867.36218"
             x="-17"
             height="191.5"
             width="247.5"
             id="rect4080" /></flowRegion><flowPara
           id="flowPara4082" /></flowRoot>      <text
         sodipodi:linespacing="125%"
         id="text4084"
         y="898.86218"
         x="-16"
         style="font-size:25px;font-style:normal;font-variant:normal;font-weight:bold;font-stretch:normal;line-height:125%;letter-spacing:0px;word-spacing:0px;fill:#000000;fill-opacity:1;stroke:none;font-family:Nimbus Mono L;-inkscape-font-specification:Nimbus Mono L Bold"
         xml:space="preserve"><tspan
           id="tspan4088"
           y="898.86218"
           x="-16"
           sodipodi:role="line" /></text>
      <text
         sodipodi:linespacing="125%"
         id="text4280"
         y="947.45593"
         x="95.136719"
         style="font-size:40px;font-style:normal;font-variant:normal;font-weight:bold;font-stretch:normal;line-height:125%;letter-spacing:0px;word-spacing:0px;fill:#000000;fill-opacity:1;stroke:none;font-family:Droid Sans;-inkscape-font-specification:Droid Sans Bold"
         xml:space="preserve"><tspan
           y="947.45593"
           x="95.136719"
           id="tspan4282"
           sodipodi:role="line" /></text>
      <path
         transform="matrix(0.919202,-0.479166,0.481688,0.92404,-82.195,919.031)"
         d="m 242.43661,108.87971 c 0,52.99972 -43.1909,95.96449 -96.46957,95.96449 -53.278669,0 -96.469565,-42.96477 -96.469565,-95.96449 0,-52.999729 43.190896,-95.964495 96.469565,-95.964495 53.27867,0 96.46957,42.964766 96.46957,95.964495 z"
         sodipodi:ry="95.964493"
         sodipodi:rx="96.469566"
         sodipodi:cy="108.87971"
         sodipodi:cx="145.96704"
         id="path2985"
         style="fill:#000000;fill-opacity:1;stroke:none"
         sodipodi:type="arc" />
      <path
         transform="matrix(0.882434,-0.459999,0.46242,0.887078,-74.7302,920.258)"
         d="m 242.43661,108.87971 c 0,52.99972 -43.1909,95.96449 -96.46957,95.96449 -53.278669,0 -96.469565,-42.96477 -96.469565,-95.96449 0,-52.999729 43.190896,-95.964495 96.469565,-95.964495 53.27867,0 96.46957,42.964766 96.46957,95.964495 z"
         sodipodi:ry="95.964493"
         sodipodi:rx="96.469566"
         sodipodi:cy="108.87971"
         sodipodi:cx="145.96704"
         id="path2985-6"
         style="fill:#ffffff;fill-opacity:1;stroke:none"
         sodipodi:type="arc" />
      <path
         transform="matrix(0.551521,-0.287499,0.289013,0.554424,-7.54731,931.298)"
         d="m 242.43661,108.87971 c 0,52.99972 -43.1909,95.96449 -96.46957,95.96449 -53.278669,0 -96.469565,-42.96477 -96.469565,-95.96449 0,-52.999729 43.190896,-95.964495 96.469565,-95.964495 53.27867,0 96.46957,42.964766 96.46957,95.964495 z"
         sodipodi:ry="95.964493"
         sodipodi:rx="96.469566"
         sodipodi:cy="108.87971"
         sodipodi:cx="145.96704"
         id="path2985-1"
         style="fill:#000000;fill-opacity:1;stroke:none"
         sodipodi:type="arc" />
      <path
         transform="matrix(0.523945,-0.273124,0.274562,0.526703,-1.94873,932.218)"
         d="m 242.43661,108.87971 c 0,52.99972 -43.1909,95.96449 -96.46957,95.96449 -53.278669,0 -96.469565,-42.96477 -96.469565,-95.96449 0,-52.999729 43.190896,-95.964495 96.469565,-95.964495 53.27867,0 96.46957,42.964766 96.46957,95.964495 z"
         sodipodi:ry="95.964493"
         sodipodi:rx="96.469566"
         sodipodi:cy="108.87971"
         sodipodi:cx="145.96704"
         id="path2985-1-5"
         style="fill:#e62015;fill-opacity:1;stroke:none"
         sodipodi:type="arc" />
      <path
         d="m 30.369493,946.33816 0.403412,-3.89919 c 0.382829,-3.70024 -0.08774,-5.75961 -1.856207,-7.71197 -1.26084,-1.41727 -3.056765,-2.32693 -4.886994,-2.51628 -4.416421,-0.45693 -7.890341,2.80288 -8.413129,7.8559 l -0.959132,9.27052 c -0.107028,1.03448 -0.09605,1.31711 0.105622,1.69989 0.296342,0.63387 0.935684,1.06193 1.612073,1.13191 0.596814,0.0617 1.266348,-0.19069 1.717738,-0.66676 0.315561,-0.32928 0.440418,-0.75871 0.543329,-1.7534 l 0.06175,-0.59681 15.23866,1.5766 -0.06175,0.59681 c -0.09879,0.9549 -0.09605,1.31711 0.105623,1.6999 0.296341,0.63386 0.935684,1.06193 1.612073,1.13191 0.596813,0.0617 1.266348,-0.19069 1.67795,-0.67088 0.311444,-0.28949 0.488438,-0.83417 0.583116,-1.74928 l 0.88092,-8.51455 c 0.08233,-0.79576 0.02471,-1.40492 -0.105623,-1.6999 -0.296341,-0.63386 -0.935684,-1.06193 -1.612073,-1.13191 -0.636601,-0.0659 -1.266348,0.19069 -1.717738,0.66677 -0.319677,0.36906 -0.432184,0.67913 -0.543328,1.75339 l -0.407529,3.93898 -3.978762,-0.41165 m -11.259897,-1.16495 0.485741,-4.69494 c 0.284035,-2.74535 1.849495,-4.27235 4.117387,-4.03772 2.228104,0.23052 3.447782,2.04568 3.163748,4.79103 l -0.485741,4.69494 -7.281135,-0.75331"
         style="font-size:40px;font-style:normal;font-variant:normal;font-weight:bold;font-stretch:normal;line-height:125%;letter-spacing:2px;word-spacing:0px;fill:#000000;fill-opacity:1;stroke:none;font-family:Nimbus Mono L;-inkscape-font-specification:Nimbus Mono L Bold"
         id="path3874"
         inkscape:connector-curvature="0" />
      <path
         d="m 30.330942,907.33003 1.92045,-3.55436 c 0.43733,-0.8094 0.576105,-1.23454 0.552261,-1.61115 -0.03151,-0.699 -0.458639,-1.33897 -1.056897,-1.66222 -0.563067,-0.30423 -1.224043,-0.3431 -1.842161,-0.0406 -0.436485,0.21882 -0.658984,0.46232 -1.172371,1.4125 l -5.742336,10.62788 c -0.494373,0.91499 -0.592282,1.18034 -0.552262,1.61115 0.03151,0.69901 0.45864,1.33898 1.056898,1.66222 0.563066,0.30423 1.243057,0.30791 1.84216,0.0406 0.417471,-0.18363 0.697013,-0.53271 1.172371,-1.4125 l 1.920451,-3.55436 13.478412,7.2825 -1.92045,3.55436 c -0.494373,0.91498 -0.592282,1.18034 -0.552262,1.61115 0.03151,0.699 0.45864,1.33897 1.056898,1.66222 0.527875,0.28521 1.243057,0.30791 1.806969,0.0216 0.41747,-0.18363 0.751218,-0.54889 1.207562,-1.39349 l 5.742337,-10.62788 c 0.836631,-1.54843 0.656688,-2.6459 -0.504636,-3.27337 -0.563066,-0.30423 -1.224043,-0.3431 -1.842161,-0.0406 -0.436484,0.21881 -0.658984,0.46232 -1.172371,1.41249 l -1.92045,3.55436 -13.478412,-7.2825"
         style="font-size:40px;font-style:normal;font-variant:normal;font-weight:bold;font-stretch:normal;line-height:125%;letter-spacing:2px;word-spacing:0px;fill:#000000;fill-opacity:1;stroke:none;font-family:Nimbus Mono L;-inkscape-font-specification:Nimbus Mono L Bold"
         id="path3876"
         inkscape:connector-curvature="0" />
      <path
         d="m 57.270375,897.79104 -0.291884,-19.62659 -2.44087,-3.01605 -12.686064,10.26676 4.277813,5.28586 c 0.62909,0.77733 0.892586,0.97575 1.274524,1.12977 0.688387,0.21476 1.412353,0.092 1.940939,-0.3358 0.497492,-0.40261 0.762583,-1.02882 0.746389,-1.68466 -0.0088,-0.45599 -0.173106,-0.78616 -0.852523,-1.62568 l -1.761452,-2.17653 5.565699,-4.50428 0.247487,19.50814 2.516361,3.10933 14.116355,-11.42428 -4.32814,-5.34805 c -0.654253,-0.80842 -0.861493,-1.00091 -1.274525,-1.12977 -0.657293,-0.23992 -1.412353,-0.092 -1.940938,0.3358 -0.497492,0.40262 -0.762583,1.02882 -0.771553,1.65357 0.03398,0.48708 0.248597,0.87943 0.877686,1.65677 l 1.81178,2.23871 -7.027084,5.68698"
         style="font-size:40px;font-style:normal;font-variant:normal;font-weight:bold;font-stretch:normal;line-height:125%;letter-spacing:2px;word-spacing:0px;fill:#000000;fill-opacity:1;stroke:none;font-family:Nimbus Mono L;-inkscape-font-specification:Nimbus Mono L Bold"
         id="path3878"
         inkscape:connector-curvature="0" />
      <path
         d="m 80.784393,883.68179 7.232194,-18.24783 -1.102694,-3.72001 -15.647048,4.63814 1.932556,6.5196 c 0.2842,0.95877 0.451845,1.24284 0.74591,1.53115 0.554025,0.46158 1.269948,0.62485 1.921907,0.43159 0.61361,-0.18188 1.097926,-0.65921 1.333648,-1.27145 0.166142,-0.42473 0.140531,-0.79262 -0.166404,-1.82809 l -0.795758,-2.68454 6.864758,-2.03487 -7.227947,18.12142 1.136798,3.83506 17.411175,-5.16107 -1.955292,-6.5963 c -0.295567,-0.99712 -0.413494,-1.2542 -0.745909,-1.53115 -0.515675,-0.47295 -1.269948,-0.62485 -1.921908,-0.43159 -0.613609,0.18189 -1.097925,0.65921 -1.345015,1.2331 -0.154775,0.46308 -0.106428,0.90767 0.177771,1.86644 l 0.818495,2.76124 -8.667237,2.56916"
         style="font-size:40px;font-style:normal;font-variant:normal;font-weight:bold;font-stretch:normal;line-height:125%;letter-spacing:2px;word-spacing:0px;fill:#000000;fill-opacity:1;stroke:none;font-family:Nimbus Mono L;-inkscape-font-specification:Nimbus Mono L Bold"
         id="path3880"
         inkscape:connector-curvature="0" />
      <path
         d="m 116.71561,878.27454 0.66723,2.40492 -0.91475,-0.0982 c -1.03406,-0.11096 -1.31673,-0.10106 -1.70028,0.0992 -0.63499,0.29394 -1.06548,0.93165 -1.13803,1.60776 -0.0683,0.63635 0.18588,1.26707 0.6645,1.68049 0.32807,0.31681 0.79253,0.48734 1.74705,0.58976 l 5.52826,0.5932 c 0.83521,0.0896 1.36078,0.0656 1.70029,-0.0992 0.63498,-0.29393 1.06548,-0.93164 1.13803,-1.60776 0.0683,-0.63635 -0.18588,-1.26706 -0.6645,-1.68049 -0.36358,-0.36085 -0.71299,-0.4788 -1.8266,-0.59829 l -5.8533,-20.05899 -8.59069,-0.9218 c -1.07383,-0.11523 -1.3565,-0.10533 -1.74006,0.0949 -0.63925,0.3337 -1.06547,0.93164 -1.13802,1.60776 -0.0683,0.63635 0.18587,1.26707 0.66023,1.72026 0.36784,0.32108 0.75703,0.4433 1.79109,0.55426 l 2.50562,0.26886 -7.79911,14.57107 c -0.9943,-0.10669 -1.35651,-0.10532 -1.74006,0.0949 -0.634986,0.29393 -1.065482,0.93164 -1.138031,1.60776 -0.140832,1.31246 0.661598,2.08247 2.411551,2.27024 l 5.28964,0.5676 c 0.8352,0.0896 1.36077,0.0656 1.70028,-0.0992 0.63498,-0.29393 1.06548,-0.93165 1.13803,-1.60776 0.0683,-0.63635 -0.18588,-1.26707 -0.66023,-1.72026 -0.36785,-0.32108 -0.67749,-0.43477 -1.75132,-0.54999 l -0.91475,-0.0982 1.16227,-2.2086 9.46566,1.01569 m -1.20387,-4.15214 -6.24416,-0.67001 3.96135,-7.29903 2.28281,7.96904"
         style="font-size:40px;font-style:normal;font-variant:normal;font-weight:bold;font-stretch:normal;line-height:125%;letter-spacing:2px;word-spacing:0px;fill:#000000;fill-opacity:1;stroke:none;font-family:Nimbus Mono L;-inkscape-font-specification:Nimbus Mono L Bold"
         id="path3882"
         inkscape:connector-curvature="0" />
      <path
         transform="matrix(0.606673,-0.316249,0.317914,0.609866,-18.7707,954.527)"
         d="m 242.43661,108.87971 c 0,52.99972 -43.1909,95.96449 -96.46957,95.96449 -53.278669,0 -96.469565,-42.96477 -96.469565,-95.96449 0,-52.999729 43.190896,-95.964495 96.469565,-95.964495 53.27867,0 96.46957,42.964766 96.46957,95.964495 z"
         sodipodi:ry="95.964493"
         sodipodi:rx="96.469566"
         sodipodi:cy="108.87971"
         sodipodi:cx="145.96704"
         id="path2985-1-5-4-5"
         style="fill:none;stroke:none"
         sodipodi:type="arc" />
      <path
         d="m 91.093914,1029.7729 3.89267,0.4621 c 3.694047,0.4385 5.760276,-10e-4 7.739076,-1.7398 1.43609,-1.2394 2.37269,-3.0214 2.58959,-4.8486 0.52341,-4.409 -2.6837,-7.9316 -7.728274,-8.5305 l -9.255014,-1.0987 c -1.032749,-0.1226 -1.315516,-0.1158 -1.701296,0.08 -0.638272,0.2868 -1.075902,0.9196 -1.156063,1.5949 -0.07074,0.5958 0.171591,1.2691 0.640806,1.7276 0.324485,0.3205 0.751987,0.4518 1.745019,0.5696 l 0.595809,0.071 -1.80597,15.2132 -0.595818,-0.071 c -0.953305,-0.1131 -1.315512,-0.1159 -1.701291,0.08 -0.638281,0.2867 -1.075902,0.9196 -1.156064,1.5949 -0.07073,0.5958 0.171596,1.269 0.645521,1.6878 0.284787,0.3158 0.82673,0.501 1.740328,0.6095 l 8.500285,1.009 c 0.794446,0.094 1.404403,0.046 1.7013,-0.08 0.638374,-0.2865 1.075903,-0.9196 1.156078,-1.5948 0.07544,-0.6355 -0.171605,-1.2691 -0.64083,-1.7276 -0.364197,-0.3252 -0.672524,-0.4423 -1.745018,-0.5697 l -3.932392,-0.4668 0.471548,-3.9721 m 1.33444,-11.2411 4.687093,0.5564 c 2.740746,0.3254 4.244003,1.9137 3.975223,4.1778 -0.26406,2.2243 -2.097384,3.4165 -4.838139,3.0912 l -4.687092,-0.5564 0.862915,-7.269"
         style="font-size:40px;font-style:normal;font-variant:normal;font-weight:bold;font-stretch:normal;line-height:125%;letter-spacing:12px;word-spacing:0px;fill:#000000;fill-opacity:1;stroke:none;font-family:Nimbus Mono L;-inkscape-font-specification:Nimbus Mono L Bold"
         id="path3890"
         inkscape:connector-curvature="0" />
      <path
         d="m 123.3721,1027.7447 3.682,-1.0901 c 1.7812,0.098 6.55891,3.2726 9.57811,6.4252 l 3.02998,-0.8971 c 0.76708,-0.2271 1.30833,-0.5125 1.53144,-0.7453 0.47314,-0.5155 0.62528,-1.2697 0.43223,-1.9217 -0.1817,-0.6137 -0.67024,-1.1365 -1.23268,-1.3455 -0.46302,-0.1549 -0.90764,-0.1067 -1.8665,0.1772 l -0.4988,0.1472 c -2.37169,-2.0928 -4.31317,-3.437 -6.58141,-4.4758 2.34566,-2.3631 3.14299,-4.6016 2.42763,-7.0179 -1.19233,-4.0272 -5.47318,-5.8051 -10.45923,-4.3289 l -8.55302,2.5323 c -0.99721,0.2952 -1.25434,0.4131 -1.5314,0.7454 -0.47311,0.5155 -0.62526,1.2698 -0.43221,1.9218 0.18168,0.6136 0.65883,1.0981 1.27101,1.334 0.42468,0.1663 0.86929,0.1181 1.82815,-0.1658 l 0.57531,-0.1703 4.34913,14.6897 -0.57532,0.1704 c -0.92048,0.2725 -1.25433,0.4131 -1.53143,0.7453 -0.47314,0.5155 -0.62528,1.2697 -0.43224,1.9217 0.17033,0.5753 0.65886,1.0982 1.25968,1.2958 0.38632,0.1776 0.95734,0.1337 1.8395,-0.1275 l 5.75312,-1.7034 c 0.76709,-0.2271 1.30837,-0.5124 1.53144,-0.7453 0.47313,-0.5155 0.62527,-1.2697 0.43224,-1.9217 -0.18171,-0.6137 -0.65882,-1.0981 -1.23264,-1.3454 -0.46307,-0.155 -0.83094,-0.1294 -1.8665,0.1772 l -1.34241,0.3974 -1.38537,-4.6792 m -1.13555,-3.8355 -1.82822,-6.175 4.29569,-1.2718 c 2.45466,-0.7268 4.58235,-0.022 5.07065,1.6275 0.56773,1.9176 -1.40142,4.0025 -4.62316,4.9563 l -2.91496,0.863"
         style="font-size:40px;font-style:normal;font-variant:normal;font-weight:bold;font-stretch:normal;line-height:125%;letter-spacing:12px;word-spacing:0px;fill:#000000;fill-opacity:1;stroke:none;font-family:Nimbus Mono L;-inkscape-font-specification:Nimbus Mono L Bold"
         id="path3892"
         inkscape:connector-curvature="0" />
      <path
         d="m 146.62973,999.89934 c -4.79126,3.87166 -5.23605,11.27646 -1.01245,16.50336 4.24871,5.2579 11.58197,6.3777 16.37322,2.5061 4.72902,-3.8213 5.23604,-11.2765 1.11303,-16.3789 -2.41346,-2.9867 -5.31377,-4.60302 -8.78225,-4.8859 -2.90595,-0.22316 -5.60704,0.57093 -7.69155,2.25534 m 2.51404,3.11116 c 3.08009,-2.4888 7.90711,-1.6067 10.79824,1.9712 2.76545,3.4224 2.55233,8.3773 -0.46555,10.8159 -3.04896,2.4638 -7.90712,1.6067 -10.74798,-1.9089 -2.81572,-3.4846 -2.63371,-8.4144 0.41529,-10.8782"
         style="font-size:40px;font-style:normal;font-variant:normal;font-weight:bold;font-stretch:normal;line-height:125%;letter-spacing:12px;word-spacing:0px;fill:#000000;fill-opacity:1;stroke:none;font-family:Nimbus Mono L;-inkscape-font-specification:Nimbus Mono L Bold"
         id="path3894"
         inkscape:connector-curvature="0" />
      <path
         d="m 175.00053,983.01642 -3.63731,-9.03116 c 0.61965,-1.25604 0.39503,-2.37065 -0.70089,-2.95079 -0.56563,-0.29943 -1.22691,-0.33269 -1.84243,-0.0249 -0.43481,0.22215 -0.65503,0.46791 -1.16032,1.42241 l -1.68431,3.18169 c -0.41171,0.77774 -0.60509,1.39952 -0.50734,1.81334 0.0749,0.628 0.49081,1.21025 1.02108,1.49097 0.77775,0.41172 1.42447,0.30148 2.44341,-0.42637 l 2.11293,5.32762 -5.63125,1.31857 c 0.0478,-1.28721 -0.24336,-1.84867 -1.0211,-2.26039 -0.56564,-0.29943 -1.24564,-0.29733 -1.84245,-0.0249 -0.4348,0.22215 -0.65503,0.46791 -1.17903,1.45777 l -1.70301,3.21703 c -0.131,0.24747 -0.14971,0.28283 -0.30358,0.74447 -0.43667,1.08136 -0.11848,2.0192 0.83603,2.5245 1.06056,0.56143 2.08991,0.15589 2.85304,-1.1147 l 9.49702,-2.12346 3.89312,9.57392 c -0.69244,1.30801 -0.4325,2.44129 0.66345,3.02146 0.56564,0.2995 1.24561,0.2973 1.84241,0.025 0.37901,-0.20884 0.71119,-0.57394 1.16035,-1.42235 l 2.07729,-3.92413 c 0.39302,-0.74234 0.56558,-1.2394 0.53853,-1.61582 -0.0374,-0.69863 -0.46997,-1.33494 -1.07099,-1.65316 -1.06057,-0.56144 -2.07119,-0.19125 -2.77817,0.97333 l -2.33338,-5.85165 6.13239,-1.32487 c -0.5843,1.27475 -0.32221,2.31873 0.73831,2.88008 1.16666,0.61766 2.17933,0.158 3.00277,-1.39749 l 2.07732,-3.92404 c 0.39299,-0.74244 0.56557,-1.23942 0.53854,-1.6158 -0.0375,-0.69872 -0.47002,-1.33503 -1.071,-1.65318 -1.09591,-0.58014 -2.12525,-0.17461 -2.87176,1.15005 l -10.08967,2.21705"
         style="font-size:40px;font-style:normal;font-variant:normal;font-weight:bold;font-stretch:normal;line-height:125%;letter-spacing:12px;word-spacing:0px;fill:#000000;fill-opacity:1;stroke:none;font-family:Nimbus Mono L;-inkscape-font-specification:Nimbus Mono L Bold"
         id="path3896"
         inkscape:connector-curvature="0" />
      <path
         d="m 184.67247,953.71599 -8.944,-7.32589 0.007,-0.0797 c 0.27539,-1.38193 -0.54868,-2.57428 -1.78443,-2.67698 -0.63779,-0.053 -1.25893,0.17635 -1.70393,0.70129 -0.30885,0.33558 -0.41839,0.68772 -0.50783,1.76401 l -0.30477,3.66736 c -0.0828,0.99656 -0.0728,1.35864 0.13659,1.73728 0.30908,0.62775 0.95692,1.04283 1.63459,1.09915 0.91683,0.0762 1.5977,-0.38902 2.08577,-1.43218 l 5.10991,4.1976 -5.73601,3.33642 c -0.35236,-1.07286 -0.91054,-1.60091 -1.82739,-1.67709 -0.6378,-0.053 -1.26224,0.2162 -1.70062,0.66143 -0.31217,0.37543 -0.42171,0.72757 -0.51114,1.80386 l -0.29484,3.54777 c -0.0265,0.3189 -0.0298,0.35876 0.0102,0.84374 0.0235,1.16595 0.68473,1.90324 1.76102,1.99269 1.2756,0.10601 2.06932,-0.75121 2.20514,-2.38557 l 10.0339,-5.7889 5.78007,0.48034 -0.21533,2.59107 c -0.0894,1.07629 -0.0728,1.35864 0.1366,1.73728 0.30908,0.62774 0.95692,1.04283 1.63458,1.09915 0.6378,0.053 1.26224,-0.21621 1.66407,-0.7046 0.30885,-0.33558 0.47151,-0.84385 0.55102,-1.80056 l 0.76192,-9.16839 c 0.0696,-0.83712 -3.3e-4,-1.44499 -0.13659,-1.73729 -0.30908,-0.62775 -0.95693,-1.04283 -1.63459,-1.09914 -0.6378,-0.053 -1.26224,0.21621 -1.70394,0.7013 -0.31215,0.37543 -0.41838,0.68771 -0.51114,1.80386 l -0.21533,2.59106 -5.78008,-0.48034"
         style="font-size:40px;font-style:normal;font-variant:normal;font-weight:bold;font-stretch:normal;line-height:125%;letter-spacing:12px;word-spacing:0px;fill:#000000;fill-opacity:1;stroke:none;font-family:Nimbus Mono L;-inkscape-font-specification:Nimbus Mono L Bold"
         id="path3898"
         inkscape:connector-curvature="0" />
      <path
         transform="matrix(1.77947,0.581599,-0.591444,1.743,718.805,-759.996)"
         sodipodi:end="2.443461"
         sodipodi:start="1.7453293"
         d="M 1.7352038,1007.9599 C -16.581801,1004.8735 -33.175212,995.71857 -45.130787,982.10303 l 60.603748,-48.59491 z"
         sodipodi:ry="75.600273"
         sodipodi:rx="79.112572"
         sodipodi:cy="933.50812"
         sodipodi:cx="15.472961"
         id="path4072-7"
         style="fill:#fadc5f;fill-opacity:1;stroke:#000000;stroke-width:1.60343909;stroke-miterlimit:4;stroke-opacity:1;stroke-dasharray:none"
         sodipodi:type="arc" />
      <path
         id="path4072"
         d="m 182.88189,883.57453 -6.13517,4.67065 c -0.53053,0.40353 -0.6176,0.67368 -0.46651,1.0829 0.13736,0.37202 0.62946,0.61776 0.96651,0.4954 0.0749,-0.0272 0.36229,-0.2177 0.49835,-0.30928 l 4.36,-3.34061 2.5615,6.93227 1.05794,-1.85631 -2.84262,-7.67502 z m -20.59272,7.45112 -6.10401,4.67065 c -0.53053,0.40353 -0.64873,0.70461 -0.49764,1.11383 0.13735,0.37203 0.66062,0.61777 0.99767,0.49542 0.0749,-0.0272 0.33112,-0.21772 0.46719,-0.3093 l 4.36,-3.3406 7.09097,19.18753 -5.20269,1.88597 c -0.71156,0.2583 -0.95668,0.63012 -0.77812,1.11374 0.1923,0.52083 0.66629,0.6474 1.34039,0.40269 l 9.65771,-3.49367 1.21349,-2.16571 -4.67308,1.70047 -7.87188,-21.26102 z m -19.8762,7.17283 c -0.52048,0.0512 -1.03825,0.18222 -1.55786,0.37085 -4.15696,1.50903 -5.50759,6.55428 -3.32361,12.46942 l 1.37446,3.71372 c 2.17025,5.87794 6.47634,8.87703 10.6333,7.368 4.15696,-1.50904 5.52504,-6.56054 3.35479,-12.43848 l -1.37446,-3.71371 c -1.91098,-5.17575 -5.4632,-8.12858 -9.10662,-7.7698 z m 0.15723,1.60915 c 1.1556,-0.12682 2.27366,0.20498 3.24184,0.92933 1.75535,1.30345 3.36442,3.59258 4.24351,5.97352 l 1.21828,3.3114 c 0.87909,2.38093 1.15247,5.15291 0.66081,7.27206 -0.35689,1.56396 -1.38475,2.7391 -2.95766,3.31009 -1.57291,0.57099 -3.10374,0.3146 -4.39466,-0.65119 -1.75535,-1.30346 -3.36441,-3.59259 -4.2435,-5.97353 l -1.21829,-3.31139 c -0.87909,-2.38094 -1.15246,-5.15292 -0.66081,-7.27206 0.35689,-1.56397 1.38476,-2.73911 2.95766,-3.3101 0.39323,-0.14274 0.76762,-0.23586 1.15282,-0.27813 z m -21.43525,6.18214 -6.13517,4.67064 c -0.53053,0.40354 -0.6176,0.67368 -0.46651,1.0829 0.13735,0.37202 0.62946,0.61776 0.96651,0.49541 0.0749,-0.0272 0.36228,-0.21771 0.49835,-0.30929 l 4.36,-3.3406 7.09097,19.18753 -5.20269,1.88596 c -0.71156,0.25831 -0.95665,0.66107 -0.77809,1.14469 0.1923,0.52083 0.66629,0.6474 1.34039,0.40269 l 11.9319,-4.3594 c 0.6741,-0.24471 0.93924,-0.62386 0.74693,-1.1447 -0.17856,-0.48362 -0.6351,-0.61644 -1.3092,-0.37173 l -5.2027,1.88597 -7.84069,-21.23007 z m -20.59272,7.45111 -6.104012,4.67065 c -0.530523,0.40354 -0.648738,0.70461 -0.497645,1.11384 0.137357,0.37202 0.660623,0.61777 0.997674,0.49541 0.0749,-0.0272 0.331121,-0.21771 0.467186,-0.30929 l 4.360001,-3.34061 7.090976,19.18753 -5.2027,1.88597 c -0.71155,0.2583 -0.95668,0.63012 -0.77811,1.11374 0.1923,0.52084 0.66629,0.6474 1.34039,0.40269 l 11.96309,-4.32844 c 0.6741,-0.24471 0.90807,-0.62388 0.71577,-1.14471 -0.17856,-0.48362 -0.60394,-0.61644 -1.27804,-0.37173 l -5.2027,1.88597 -7.87188,-21.26102 z m -19.097108,7.17308 c -0.776292,-0.0227 -1.557528,0.0876 -2.336958,0.3706 -4.15696,1.50904 -5.538751,6.55427 -3.354767,12.46942 l 1.374458,3.71371 c 2.170248,5.87794 6.507497,8.87704 10.664457,7.36801 4.156961,-1.50904 5.525043,-6.56053 3.354794,-12.43847 l -1.374457,-3.71372 c -1.774488,-4.80605 -4.963596,-7.67113 -8.327527,-7.76955 z m -0.621867,1.6089 c 1.155599,-0.12681 2.273657,0.20499 3.241845,0.92933 1.755347,1.30345 3.364414,3.59259 4.243502,5.97352 l 1.218286,3.3114 c 0.879088,2.38094 1.152466,5.15292 0.660807,7.27206 -0.356886,1.56397 -1.384754,2.7391 -2.957658,3.31009 -1.572904,0.57099 -3.103743,0.3146 -4.39466,-0.65119 -1.755347,-1.30345 -3.364415,-3.59259 -4.243503,-5.97352 l -1.218286,-3.3114 c -0.879088,-2.38093 -1.152465,-5.15292 -0.660807,-7.27206 0.356886,-1.56396 1.384755,-2.7391 2.957659,-3.31009 0.393225,-0.14275 0.767615,-0.23587 1.152815,-0.27814 z m -19.970853,5.84221 c -0.651605,-0.019 -1.307529,0.0828 -1.963074,0.27789 0.228305,0.49969 0.452792,0.98868 0.686904,1.48553 1.398197,-0.35837 2.741015,-0.0585 3.896175,0.80575 1.755347,1.30346 3.364414,3.59259 4.243502,5.97353 l 1.218287,3.31139 c 0.879088,2.38094 1.152465,5.15292 0.660807,7.27207 -0.02723,0.11931 -0.05838,0.22573 -0.09319,0.34035 0.355006,0.5379 0.729813,1.04524 1.092114,1.57849 1.307198,-2.37243 1.347846,-5.77325 -0.03951,-9.53079 l -1.374457,-3.71371 c -1.774488,-4.80605 -4.963623,-7.70207 -8.327554,-7.8005 z m 92.558178,2.07111 -6.13517,4.67065 c -0.53053,0.40353 -0.64874,0.70461 -0.49764,1.11383 0.13735,0.37202 0.66059,0.58683 0.99764,0.46447 0.0749,-0.0272 0.33115,-0.18677 0.46722,-0.27835 l 4.35997,-3.37155 3.87349,10.49125 1.05792,-1.88726 -4.12343,-11.20304 z m -20.59269,7.48206 -6.13517,4.67064 c -0.53053,0.40354 -0.64876,0.67367 -0.49767,1.08289 0.13735,0.37203 0.66062,0.61777 0.99767,0.49542 0.0749,-0.0272 0.36229,-0.21771 0.49835,-0.30929 l 4.36,-3.3406 7.09098,19.18753 -5.2027,1.88597 c -0.71155,0.2583 -0.95668,0.63012 -0.77812,1.11374 0.19231,0.52083 0.6663,0.6474 1.3404,0.40269 l 11.93192,-4.32846 c 0.6741,-0.24471 0.90807,-0.62387 0.71577,-1.1447 -0.17856,-0.48363 -0.60394,-0.61644 -1.27804,-0.37173 l -5.2027,1.88597 -7.84069,-21.23007 z m -19.1283,7.14213 c -0.77629,-0.0227 -1.55752,0.0876 -2.33695,0.3706 -4.15696,1.50903 -5.50759,6.55428 -3.32361,12.46942 l 1.37449,3.74466 c 2.17024,5.87794 6.50747,8.8461 10.66443,7.33706 4.15696,-1.50903 5.49388,-6.56054 3.32363,-12.43848 l -1.34329,-3.7137 c -1.77449,-4.80605 -4.99477,-7.67114 -8.3587,-7.76956 z m -0.0297,1.60908 c 0.94696,0.0171 1.84291,0.32553 2.64973,0.92914 1.75535,1.30346 3.36442,3.59259 4.24351,5.97353 l 1.24945,3.3114 c 0.87908,2.38094 1.1213,5.15291 0.62964,7.27206 -0.35689,1.56396 -1.35359,2.73911 -2.9265,3.3101 -1.5729,0.57099 -3.10374,0.31459 -4.39466,-0.65119 -1.75534,-1.30346 -3.36441,-3.59259 -4.2435,-5.97353 l -1.24945,-3.3114 c -0.87909,-2.38094 -1.1213,-5.15291 -0.62964,-7.27205 0.35689,-1.56397 1.35359,-2.73912 2.92649,-3.31011 0.58984,-0.21412 1.17675,-0.28824 1.74493,-0.27795 z m -21.996202,6.18197 -6.135171,4.67064 c -0.530522,0.40353 -0.648738,0.70461 -0.497645,1.11383 0.137358,0.37203 0.660596,0.58683 0.997647,0.46447 0.0749,-0.0272 0.331148,-0.18677 0.467213,-0.27835 l 4.359974,-3.37154 7.090975,19.18752 -4.049989,1.48406 c 0.460845,0.41509 0.937079,0.82843 1.403454,1.2382 l 9.969214,-3.6483 c 0.6741,-0.24471 0.90806,-0.62388 0.71576,-1.14471 -0.17856,-0.48362 -0.60394,-0.61643 -1.27804,-0.37172 l -5.202698,1.88597 -7.840694,-21.23007 z m 32.929802,23.83717 c -0.52048,0.0512 -1.03824,0.18222 -1.55786,0.37085 -4.15696,1.50903 -5.50758,6.55428 -3.3236,12.46942 l 1.37445,3.71372 c 0.46006,1.24601 1.02271,2.37177 1.65461,3.34247 0.98875,0.54285 1.99009,1.08738 2.99313,1.61003 l 0.24896,-0.40215 c -1.44338,-1.34139 -2.71661,-3.29971 -3.46384,-5.32351 l -1.21834,-3.31139 c -0.87908,-2.38094 -1.1213,-5.15291 -0.62964,-7.27205 0.35689,-1.56397 1.35359,-2.73912 2.9265,-3.31011 1.5729,-0.57099 3.10374,-0.31459 4.39466,0.6512 1.75534,1.30345 3.36441,3.59258 4.2435,5.97352 l 0.31239,0.86653 1.05795,-1.85631 c -1.93198,-5.02026 -5.42847,-7.8752 -9.01292,-7.52222 z"
         style="fill:#efcc64;fill-opacity:1;stroke:#000000;stroke-width:2.97635078;stroke-miterlimit:4;stroke-opacity:1;stroke-dasharray:none"
         inkscape:connector-curvature="0" />
      <path
         sodipodi:nodetypes="ccc"
         inkscape:connector-curvature="0"
         id="path3787"
         d="M 0.71326314,999.38078 C 9.411319,991.35506 56.344576,951.69796 64.072615,954.43154 c 5.607319,-1.04723 -46.47125,32.77847 -63.35935186,44.94924 z"
         style="fill:#000000;fill-opacity:1;stroke:#000000;stroke-width:0.98059261px;stroke-linecap:butt;stroke-linejoin:miter;stroke-opacity:1" />
      <path
         sodipodi:nodetypes="ccc"
         inkscape:connector-curvature="0"
         id="path3787-6"
         d="m 37.873702,1049.9552 c 7.281368,-11.32 46.570411,-67.25471 53.039754,-63.39911 4.694032,-1.47707 -38.902287,46.23271 -53.039754,63.39911 z"
         style="fill:#000000;fill-opacity:1;stroke:#000000;stroke-width:1.06552601px;stroke-linecap:butt;stroke-linejoin:miter;stroke-opacity:1" />
      <path
         sodipodi:nodetypes="ccc"
         inkscape:connector-curvature="0"
         id="path3787-6-1"
         d="M 0.62422371,1027.1814 C 11.462126,1015.3654 68.632576,957.78199 74.722641,963.9747 c 5.5062,-0.63474 -54.279771,46.0382 -74.09841729,63.2067 z"
         style="fill:#000000;fill-opacity:1;stroke:#000000;stroke-width:1.24844742px;stroke-linecap:butt;stroke-linejoin:miter;stroke-opacity:1" />
      <path
         sodipodi:nodetypes="ccc"
         inkscape:connector-curvature="0"
         id="path3787-6-1-5"
         d="m 9.5566001,1037.0609 c 10.8379029,-11.816 68.0083529,-69.39939 74.0984179,-63.20668 5.5062,-0.63474 -54.279771,46.03818 -74.0984179,63.20668 z"
         style="fill:#000000;fill-opacity:1;stroke:#000000;stroke-width:1.24844742px;stroke-linecap:butt;stroke-linejoin:miter;stroke-opacity:1" />
    </g>
    <text
       xml:space="preserve"
       style="font-size:40px;font-style:normal;font-weight:normal;line-height:125%;letter-spacing:0px;word-spacing:0px;fill:#000000;fill-opacity:1;stroke:none;font-family:Sans"
       x="145.73459"
       y="217.36664"
       id="text3883"
       sodipodi:linespacing="125%"><tspan
         sodipodi:role="line"
         id="tspan3885"
         x="145.73459"
         y="217.36664"
         style="font-size:16px;font-style:normal;font-variant:normal;font-weight:normal;font-stretch:normal;font-family:Courier New;-inkscape-font-specification:Courier New">0001</tspan></text>
    <text
       xml:space="preserve"
       style="font-size:40px;font-style:normal;font-weight:normal;line-height:125%;letter-spacing:0px;word-spacing:0px;fill:#000000;fill-opacity:1;stroke:none;font-family:Sans"
       x="117.25906"
       y="233.75732"
       id="text3933"
       sodipodi:linespacing="125%"><tspan
         sodipodi:role="line"
         id="tspan3935"
         x="117.25906"
         y="233.75732"
         style="font-size:14px;font-style:normal;font-variant:normal;font-weight:normal;font-stretch:normal;font-family:Courier New;-inkscape-font-specification:Courier New">Funghi</tspan></text>
    <rect
       style="fill:none;stroke:#000000;stroke-width:1.0103339;stroke-miterlimit:2;stroke-opacity:1;stroke-dasharray:none;stroke-dashoffset:0"
       id="rect3939"
       width="79.971542"
       height="34.989666"
       x="193.58472"
       y="196.38417" />
  </g>
</svg>
